<svg width="64" height="64" viewBox="0 0 64 64" fill="none" xmlns="http://www.w3.org/2000/svg">
<path d="M7.99999 18.6667C5.03999 18.6667 2.66666 21.0401 2.66666 24.0001V45.3334H7.99999C7.99999 47.4551 8.84284 49.49 10.3431 50.9903C11.8434 52.4906 13.8783 53.3334 16 53.3334C18.1217 53.3334 20.1566 52.4906 21.6568 50.9903C23.1571 49.49 24 47.4551 24 45.3334H40C40 47.4551 40.8428 49.49 42.3431 50.9903C43.8434 52.4906 45.8783 53.3334 48 53.3334C50.1217 53.3334 52.1566 52.4906 53.6568 50.9903C55.1571 49.49 56 47.4551 56 45.3334H61.3333V34.6667C61.3333 31.7067 58.96 29.3334 56 29.3334L48 18.6667H7.99999ZM40 22.6667H46.6667L51.8933 29.3334H40V22.6667ZM16 41.3334C17.0609 41.3334 18.0783 41.7548 18.8284 42.505C19.5786 43.2551 20 44.2725 20 45.3334C20 46.3943 19.5786 47.4117 18.8284 48.1618C18.0783 48.912 17.0609 49.3334 16 49.3334C14.9391 49.3334 13.9217 48.912 13.1716 48.1618C12.4214 47.4117 12 46.3943 12 45.3334C12 44.2725 12.4214 43.2551 13.1716 42.505C13.9217 41.7548 14.9391 41.3334 16 41.3334ZM48 41.3334C49.0609 41.3334 50.0783 41.7548 50.8284 42.505C51.5786 43.2551 52 44.2725 52 45.3334C52 46.3943 51.5786 47.4117 50.8284 48.1618C50.0783 48.912 49.0609 49.3334 48 49.3334C46.9391 49.3334 45.9217 48.912 45.1716 48.1618C44.4214 47.4117 44 46.3943 44 45.3334C44 44.2725 44.4214 43.2551 45.1716 42.505C45.9217 41.7548 46.9391 41.3334 48 41.3334Z" fill="#323444"/>
</svg>
