<svg width="16" height="16" viewBox="0 0 16 16" fill="none" xmlns="http://www.w3.org/2000/svg">
<path d="M2.66665 11.3333V3.33333H1.33331V2H3.99998V10H14V11.3333H2.66665ZM3.99998 14.6667C3.63331 14.6667 3.31954 14.5362 3.05865 14.2753C2.79731 14.014 2.66665 13.7 2.66665 13.3333C2.66665 12.9667 2.79731 12.6527 3.05865 12.3913C3.31954 12.1304 3.63331 12 3.99998 12C4.36665 12 4.68042 12.1304 4.94131 12.3913C5.20265 12.6527 5.33331 12.9667 5.33331 13.3333C5.33331 13.7 5.20265 14.014 4.94131 14.2753C4.68042 14.5362 4.36665 14.6667 3.99998 14.6667ZM4.66665 9.33333V5.33333H8.66665V9.33333H4.66665ZM9.33331 9.33333V5.33333H13.3333V9.33333H9.33331ZM12.6666 14.6667C12.3 14.6667 11.986 14.5362 11.7246 14.2753C11.4638 14.014 11.3333 13.7 11.3333 13.3333C11.3333 12.9667 11.4638 12.6527 11.7246 12.3913C11.986 12.1304 12.3 12 12.6666 12C13.0333 12 13.3473 12.1304 13.6086 12.3913C13.8695 12.6527 14 12.9667 14 13.3333C14 13.7 13.8695 14.014 13.6086 14.2753C13.3473 14.5362 13.0333 14.6667 12.6666 14.6667Z" fill="#323444"/>
</svg>
