<svg width="32" height="32" viewBox="0 0 32 32" fill="none" xmlns="http://www.w3.org/2000/svg">
<path fill-rule="evenodd" clip-rule="evenodd" d="M12.6666 28H19V29.3333H12.6666V28Z" fill="#D34723"/>
<path fill-rule="evenodd" clip-rule="evenodd" d="M16.6667 25.3333C16.8435 25.3333 17.013 25.4036 17.1381 25.5286C17.2631 25.6536 17.3333 25.8232 17.3333 26V28.6666C17.3333 28.8435 17.2631 29.013 17.1381 29.1381C17.013 29.2631 16.8435 29.3333 16.6667 29.3333C16.4899 29.3333 16.3203 29.2631 16.1953 29.1381C16.0702 29.013 16 28.8435 16 28.6666V26C16 25.8232 16.0702 25.6536 16.1953 25.5286C16.3203 25.4036 16.4899 25.3333 16.6667 25.3333Z" fill="#D34723"/>
<path fill-rule="evenodd" clip-rule="evenodd" d="M16.1333 26.6666C18.8373 26.6666 21.3 25.6506 23.1553 23.9833C22.043 24.4365 20.8531 24.6686 19.652 24.6666C14.714 24.6666 10.6666 20.8106 10.6666 15.9999C10.6666 15.8231 10.7369 15.6536 10.8619 15.5285C10.9869 15.4035 11.1565 15.3333 11.3333 15.3333C11.5101 15.3333 11.6797 15.4035 11.8047 15.5285C11.9297 15.6536 12 15.8231 12 15.9999C12 20.0259 15.4013 23.3333 19.652 23.3333C22.002 23.3333 24.0986 22.3193 25.5 20.7299C25.5424 20.6813 25.5918 20.6393 25.6466 20.6053C25.98 19.8786 26.2313 19.1066 26.3886 18.3019C26.6346 17.0406 26.998 15.7793 27.774 14.7553C28.096 14.3306 27.734 13.7313 27.2086 13.8179L18.4653 15.2599C17.7837 15.3724 17.084 15.2703 16.463 14.9678C15.842 14.6653 15.3303 14.1773 14.9986 13.5713L11.956 8.01127C11.6529 7.45854 11.1584 7.03552 10.5654 6.82169C9.97235 6.60786 9.32166 6.61795 8.73556 6.85004C8.14947 7.08214 7.6683 7.52028 7.38246 8.08213C7.09663 8.64399 7.02581 9.29088 7.18331 9.90127L7.41531 10.7966C7.65355 11.7164 7.64965 12.6821 7.40398 13.5999L6.89664 15.4946C6.30864 17.6899 6.13998 20.1026 7.39664 21.9966C8.35385 23.4363 9.65287 24.6163 11.1776 25.4312C12.7023 26.2462 14.4052 26.6706 16.134 26.6666H16.1333ZM9.33331 9.33327C9.51012 9.33327 9.67969 9.26304 9.80471 9.13801C9.92974 9.01299 9.99998 8.84342 9.99998 8.66661C9.99998 8.4898 9.92974 8.32023 9.80471 8.1952C9.67969 8.07018 9.51012 7.99994 9.33331 7.99994C9.1565 7.99994 8.98693 8.07018 8.86191 8.1952C8.73688 8.32023 8.66664 8.4898 8.66664 8.66661C8.66664 8.84342 8.73688 9.01299 8.86191 9.13801C8.98693 9.26304 9.1565 9.33327 9.33331 9.33327V9.33327Z" fill="#D34723"/>
<path fill-rule="evenodd" clip-rule="evenodd" d="M10.0573 3.99997C10.8973 3.15997 12.3333 3.75464 12.3333 4.94264V5.99997H13.2467C14.4727 5.99997 15.0487 7.5153 14.132 8.32997L12.4427 9.8313C12.31 9.94484 12.138 10.0018 11.9637 9.98982C11.7895 9.97788 11.6269 9.89804 11.5109 9.76746C11.3949 9.63688 11.3348 9.46599 11.3435 9.29155C11.3522 9.11711 11.429 8.95304 11.5573 8.83464L13.2467 7.3333H12.3333C11.9797 7.3333 11.6406 7.19283 11.3905 6.94278C11.1405 6.69273 11 6.35359 11 5.99997V4.94264L5.27601 10.6666H7.66668C7.84349 10.6666 8.01306 10.7369 8.13808 10.8619C8.26311 10.9869 8.33334 11.1565 8.33334 11.3333C8.33334 11.5101 8.26311 11.6797 8.13808 11.8047C8.01306 11.9297 7.84349 12 7.66668 12H5.27601C4.08801 12 3.49334 10.564 4.33334 9.72397L10.0573 3.99997Z" fill="#D34723"/>
</svg>
