<svg width="255" height="64" viewBox="0 0 255 64" fill="none" xmlns="http://www.w3.org/2000/svg">
<path d="M13.376 34.192C11.6907 34.192 10.1333 33.9147 8.704 33.36C7.27467 32.784 6.03733 31.984 4.992 30.96C3.94667 29.936 3.12533 28.7307 2.528 27.344C1.952 25.9573 1.664 24.4427 1.664 22.8C1.664 21.1573 1.952 19.6427 2.528 18.256C3.12533 16.8693 3.94667 15.664 4.992 14.64C6.05867 13.616 7.30667 12.8267 8.736 12.272C10.1653 11.696 11.7227 11.408 13.408 11.408C15.0293 11.408 16.5547 11.6853 17.984 12.24C19.4133 12.7733 20.6187 13.584 21.6 14.672L20.096 16.176C19.1787 15.2373 18.1653 14.5653 17.056 14.16C15.9467 13.7333 14.752 13.52 13.472 13.52C12.128 13.52 10.88 13.7547 9.728 14.224C8.576 14.672 7.57333 15.3227 6.72 16.176C5.86667 17.008 5.19467 17.9893 4.704 19.12C4.23467 20.2293 4 21.456 4 22.8C4 24.144 4.23467 25.3813 4.704 26.512C5.19467 27.6213 5.86667 28.6027 6.72 29.456C7.57333 30.288 8.576 30.9387 9.728 31.408C10.88 31.856 12.128 32.08 13.472 32.08C14.752 32.08 15.9467 31.8667 17.056 31.44C18.1653 31.0133 19.1787 30.3307 20.096 29.392L21.6 30.896C20.6187 31.984 19.4133 32.8053 17.984 33.36C16.5547 33.9147 15.0187 34.192 13.376 34.192ZM34.744 17.04C36.1093 17.04 37.304 17.3067 38.328 17.84C39.3733 18.352 40.184 19.1413 40.76 20.208C41.3573 21.2747 41.656 22.6187 41.656 24.24V34H39.384V24.464C39.384 22.6933 38.936 21.36 38.04 20.464C37.1653 19.5467 35.928 19.088 34.328 19.088C33.1333 19.088 32.088 19.3333 31.192 19.824C30.3173 20.2933 29.6347 20.9867 29.144 21.904C28.6747 22.8 28.44 23.888 28.44 25.168V34H26.168V10.256H28.44V21.808L27.992 20.944C28.5253 19.728 29.3787 18.7787 30.552 18.096C31.7253 17.392 33.1227 17.04 34.744 17.04ZM47.793 34V17.2H50.065V34H47.793ZM48.945 13.488C48.4757 13.488 48.081 13.328 47.761 13.008C47.441 12.688 47.281 12.304 47.281 11.856C47.281 11.408 47.441 11.0347 47.761 10.736C48.081 10.416 48.4757 10.256 48.945 10.256C49.4143 10.256 49.809 10.4053 50.129 10.704C50.449 11.0027 50.609 11.376 50.609 11.824C50.609 12.2933 50.449 12.688 50.129 13.008C49.8303 13.328 49.4357 13.488 48.945 13.488ZM56.3868 34V17.2H58.6588V34H56.3868ZM57.5388 13.488C57.0694 13.488 56.6748 13.328 56.3548 13.008C56.0348 12.688 55.8748 12.304 55.8748 11.856C55.8748 11.408 56.0348 11.0347 56.3548 10.736C56.6748 10.416 57.0694 10.256 57.5388 10.256C58.0081 10.256 58.4028 10.4053 58.7228 10.704C59.0428 11.0027 59.2028 11.376 59.2028 11.824C59.2028 12.2933 59.0428 12.688 58.7228 13.008C58.4241 13.328 58.0294 13.488 57.5388 13.488ZM74.2925 34.256C72.8418 34.256 71.5725 33.936 70.4845 33.296C69.3965 32.656 68.5432 31.6853 67.9245 30.384C67.3272 29.0613 67.0285 27.3973 67.0285 25.392C67.0285 23.3653 67.3165 21.7013 67.8925 20.4C68.4685 19.0987 69.3005 18.128 70.3885 17.488C71.4765 16.848 72.7778 16.528 74.2925 16.528C75.9138 16.528 77.3645 16.9013 78.6445 17.648C79.9458 18.3733 80.9698 19.3973 81.7165 20.72C82.4845 22.0427 82.8685 23.6 82.8685 25.392C82.8685 27.2053 82.4845 28.7733 81.7165 30.096C80.9698 31.4187 79.9458 32.4427 78.6445 33.168C77.3645 33.8933 75.9138 34.256 74.2925 34.256ZM64.1165 40.208V16.784H68.8845V20.304L68.7885 25.424L69.1085 30.512V40.208H64.1165ZM73.4285 30.16C74.2605 30.16 74.9965 29.968 75.6365 29.584C76.2978 29.2 76.8205 28.656 77.2045 27.952C77.6098 27.2267 77.8125 26.3733 77.8125 25.392C77.8125 24.3893 77.6098 23.536 77.2045 22.832C76.8205 22.128 76.2978 21.584 75.6365 21.2C74.9965 20.816 74.2605 20.624 73.4285 20.624C72.5965 20.624 71.8498 20.816 71.1885 21.2C70.5272 21.584 70.0045 22.128 69.6205 22.832C69.2365 23.536 69.0445 24.3893 69.0445 25.392C69.0445 26.3733 69.2365 27.2267 69.6205 27.952C70.0045 28.656 70.5272 29.2 71.1885 29.584C71.8498 29.968 72.5965 30.16 73.4285 30.16ZM94.4023 34.256C92.5676 34.256 90.9356 33.872 89.5063 33.104C88.0983 32.336 86.9783 31.2907 86.1463 29.968C85.3356 28.624 84.9303 27.0987 84.9303 25.392C84.9303 23.664 85.3356 22.1387 86.1463 20.816C86.9783 19.472 88.0983 18.4267 89.5063 17.68C90.9356 16.912 92.5676 16.528 94.4023 16.528C96.2156 16.528 97.8369 16.912 99.2663 17.68C100.696 18.4267 101.816 19.4613 102.626 20.784C103.437 22.1067 103.842 23.6427 103.842 25.392C103.842 27.0987 103.437 28.624 102.626 29.968C101.816 31.2907 100.696 32.336 99.2663 33.104C97.8369 33.872 96.2156 34.256 94.4023 34.256ZM94.4023 30.16C95.2343 30.16 95.9809 29.968 96.6423 29.584C97.3036 29.2 97.8263 28.656 98.2103 27.952C98.5943 27.2267 98.7863 26.3733 98.7863 25.392C98.7863 24.3893 98.5943 23.536 98.2103 22.832C97.8263 22.128 97.3036 21.584 96.6423 21.2C95.9809 20.816 95.2343 20.624 94.4023 20.624C93.5703 20.624 92.8236 20.816 92.1623 21.2C91.5009 21.584 90.9676 22.128 90.5623 22.832C90.1783 23.536 89.9863 24.3893 89.9863 25.392C89.9863 26.3733 90.1783 27.2267 90.5623 27.952C90.9676 28.656 91.5009 29.2 92.1623 29.584C92.8236 29.968 93.5703 30.16 94.4023 30.16ZM114.443 34.256C113.014 34.256 111.734 33.9787 110.603 33.424C109.494 32.8693 108.63 32.0267 108.011 30.896C107.392 29.744 107.083 28.2827 107.083 26.512V16.784H112.075V25.776C112.075 27.2053 112.374 28.2613 112.971 28.944C113.59 29.6053 114.454 29.936 115.563 29.936C116.331 29.936 117.014 29.776 117.611 29.456C118.208 29.1147 118.678 28.6027 119.019 27.92C119.36 27.216 119.531 26.3413 119.531 25.296V16.784H124.523V34H119.787V29.264L120.651 30.64C120.075 31.8347 119.222 32.7413 118.091 33.36C116.982 33.9573 115.766 34.256 114.443 34.256ZM129.148 34V10.256H134.14V34H129.148ZM147.094 34.256C145.067 34.256 143.489 33.744 142.358 32.72C141.227 31.6747 140.662 30.128 140.662 28.08V12.976H145.654V28.016C145.654 28.7413 145.846 29.3067 146.23 29.712C146.614 30.096 147.137 30.288 147.798 30.288C148.587 30.288 149.259 30.0747 149.814 29.648L151.158 33.168C150.646 33.5307 150.027 33.808 149.302 34C148.598 34.1707 147.862 34.256 147.094 34.256ZM138.006 21.008V17.168H149.942V21.008H138.006ZM153.96 34V16.784H158.728V21.648L158.056 20.24C158.568 19.024 159.39 18.1067 160.52 17.488C161.651 16.848 163.027 16.528 164.648 16.528V21.136C164.435 21.1147 164.243 21.104 164.072 21.104C163.902 21.0827 163.72 21.072 163.528 21.072C162.163 21.072 161.054 21.4667 160.2 22.256C159.368 23.024 158.952 24.2293 158.952 25.872V34H153.96ZM170.386 40.464C169.49 40.464 168.605 40.3253 167.73 40.048C166.856 39.7707 166.141 39.3867 165.586 38.896L167.41 35.344C167.794 35.6853 168.232 35.952 168.722 36.144C169.234 36.336 169.736 36.432 170.226 36.432C170.93 36.432 171.485 36.2613 171.89 35.92C172.317 35.6 172.701 35.056 173.042 34.288L173.938 32.176L174.322 31.632L180.498 16.784H185.298L177.522 35.056C176.968 36.4427 176.328 37.5307 175.602 38.32C174.898 39.1093 174.109 39.664 173.234 39.984C172.381 40.304 171.432 40.464 170.386 40.464ZM173.33 34.672L165.65 16.784H170.802L176.754 31.184L173.33 34.672Z" fill="#323444"/>
<path d="M61.8125 38H185.042V39.6H61.8125V38Z" fill="#323444"/>
<path d="M0.024 58L3.864 49.6H4.74L8.58 58H7.644L4.116 50.116H4.476L0.948 58H0.024ZM1.536 55.756L1.8 55.036H6.684L6.948 55.756H1.536ZM16.1582 58.06C15.5582 58.06 15.0182 57.924 14.5382 57.652C14.0662 57.38 13.6942 57.004 13.4222 56.524C13.1502 56.036 13.0142 55.476 13.0142 54.844C13.0142 54.204 13.1502 53.644 13.4222 53.164C13.6942 52.684 14.0662 52.312 14.5382 52.048C15.0182 51.776 15.5582 51.64 16.1582 51.64C16.7102 51.64 17.2022 51.764 17.6342 52.012C18.0742 52.26 18.4222 52.624 18.6782 53.104C18.9422 53.576 19.0742 54.156 19.0742 54.844C19.0742 55.524 18.9462 56.104 18.6902 56.584C18.4342 57.064 18.0862 57.432 17.6462 57.688C17.2142 57.936 16.7182 58.06 16.1582 58.06ZM16.2182 57.304C16.6662 57.304 17.0662 57.204 17.4182 57.004C17.7782 56.796 18.0582 56.508 18.2582 56.14C18.4662 55.764 18.5702 55.332 18.5702 54.844C18.5702 54.348 18.4662 53.916 18.2582 53.548C18.0582 53.18 17.7782 52.896 17.4182 52.696C17.0662 52.488 16.6662 52.384 16.2182 52.384C15.7782 52.384 15.3822 52.488 15.0302 52.696C14.6782 52.896 14.3982 53.18 14.1902 53.548C13.9822 53.916 13.8782 54.348 13.8782 54.844C13.8782 55.332 13.9822 55.764 14.1902 56.14C14.3982 56.508 14.6782 56.796 15.0302 57.004C15.3822 57.204 15.7782 57.304 16.2182 57.304ZM18.5942 58V56.104L18.6782 54.832L18.5582 53.56V49.096H19.4102V58H18.5942ZM22.143 58V51.7H22.995V58H22.143ZM22.575 50.308C22.399 50.308 22.251 50.248 22.131 50.128C22.011 50.008 21.951 49.864 21.951 49.696C21.951 49.528 22.011 49.388 22.131 49.276C22.251 49.156 22.399 49.096 22.575 49.096C22.751 49.096 22.899 49.152 23.019 49.264C23.139 49.376 23.199 49.516 23.199 49.684C23.199 49.86 23.139 50.008 23.019 50.128C22.907 50.248 22.759 50.308 22.575 50.308ZM27.3457 58L24.5497 51.7H25.4377L28.0057 57.544H27.5857L30.1897 51.7H31.0297L28.2217 58H27.3457ZM32.5896 58V51.7H33.4416V58H32.5896ZM33.0216 50.308C32.8456 50.308 32.6976 50.248 32.5776 50.128C32.4576 50.008 32.3976 49.864 32.3976 49.696C32.3976 49.528 32.4576 49.388 32.5776 49.276C32.6976 49.156 32.8456 49.096 33.0216 49.096C33.1976 49.096 33.3456 49.152 33.4656 49.264C33.5856 49.376 33.6456 49.516 33.6456 49.684C33.6456 49.86 33.5856 50.008 33.4656 50.128C33.3536 50.248 33.2056 50.308 33.0216 50.308ZM37.8642 58.06C37.3442 58.06 36.8522 57.988 36.3882 57.844C35.9242 57.692 35.5602 57.504 35.2962 57.28L35.6802 56.608C35.9362 56.8 36.2642 56.968 36.6642 57.112C37.0642 57.248 37.4842 57.316 37.9242 57.316C38.5242 57.316 38.9562 57.224 39.2202 57.04C39.4842 56.848 39.6162 56.596 39.6162 56.284C39.6162 56.052 39.5402 55.872 39.3882 55.744C39.2442 55.608 39.0522 55.508 38.8122 55.444C38.5722 55.372 38.3042 55.312 38.0082 55.264C37.7122 55.216 37.4162 55.16 37.1202 55.096C36.8322 55.032 36.5682 54.94 36.3282 54.82C36.0882 54.692 35.8922 54.52 35.7402 54.304C35.5962 54.088 35.5242 53.8 35.5242 53.44C35.5242 53.096 35.6202 52.788 35.8122 52.516C36.0042 52.244 36.2842 52.032 36.6522 51.88C37.0282 51.72 37.4842 51.64 38.0202 51.64C38.4282 51.64 38.8362 51.696 39.2442 51.808C39.6522 51.912 39.9882 52.052 40.2522 52.228L39.8802 52.912C39.6002 52.72 39.3002 52.584 38.9802 52.504C38.6602 52.416 38.3402 52.372 38.0202 52.372C37.4522 52.372 37.0322 52.472 36.7602 52.672C36.4962 52.864 36.3642 53.112 36.3642 53.416C36.3642 53.656 36.4362 53.844 36.5802 53.98C36.7322 54.116 36.9282 54.224 37.1682 54.304C37.4162 54.376 37.6842 54.436 37.9722 54.484C38.2682 54.532 38.5602 54.592 38.8482 54.664C39.1442 54.728 39.4122 54.82 39.6522 54.94C39.9002 55.052 40.0962 55.216 40.2402 55.432C40.3922 55.64 40.4682 55.916 40.4682 56.26C40.4682 56.628 40.3642 56.948 40.1562 57.22C39.9562 57.484 39.6602 57.692 39.2682 57.844C38.8842 57.988 38.4162 58.06 37.8642 58.06ZM42.3916 58V51.7H43.2436V58H42.3916ZM42.8236 50.308C42.6476 50.308 42.4996 50.248 42.3796 50.128C42.2596 50.008 42.1996 49.864 42.1996 49.696C42.1996 49.528 42.2596 49.388 42.3796 49.276C42.4996 49.156 42.6476 49.096 42.8236 49.096C42.9996 49.096 43.1476 49.152 43.2676 49.264C43.3876 49.376 43.4476 49.516 43.4476 49.684C43.4476 49.86 43.3876 50.008 43.2676 50.128C43.1556 50.248 43.0076 50.308 42.8236 50.308ZM48.5423 58.06C47.9343 58.06 47.3863 57.924 46.8983 57.652C46.4183 57.372 46.0383 56.992 45.7583 56.512C45.4783 56.024 45.3383 55.468 45.3383 54.844C45.3383 54.212 45.4783 53.656 45.7583 53.176C46.0383 52.696 46.4183 52.32 46.8983 52.048C47.3783 51.776 47.9263 51.64 48.5423 51.64C49.1663 51.64 49.7183 51.776 50.1983 52.048C50.6863 52.32 51.0663 52.696 51.3383 53.176C51.6183 53.656 51.7583 54.212 51.7583 54.844C51.7583 55.468 51.6183 56.024 51.3383 56.512C51.0663 56.992 50.6863 57.372 50.1983 57.652C49.7103 57.924 49.1583 58.06 48.5423 58.06ZM48.5423 57.304C48.9983 57.304 49.4023 57.204 49.7543 57.004C50.1063 56.796 50.3823 56.508 50.5823 56.14C50.7903 55.764 50.8943 55.332 50.8943 54.844C50.8943 54.348 50.7903 53.916 50.5823 53.548C50.3823 53.18 50.1063 52.896 49.7543 52.696C49.4023 52.488 49.0023 52.384 48.5543 52.384C48.1063 52.384 47.7063 52.488 47.3543 52.696C47.0023 52.896 46.7223 53.18 46.5143 53.548C46.3063 53.916 46.2023 54.348 46.2023 54.844C46.2023 55.332 46.3063 55.764 46.5143 56.14C46.7223 56.508 47.0023 56.796 47.3543 57.004C47.7063 57.204 48.1023 57.304 48.5423 57.304ZM57.0737 51.64C57.5857 51.64 58.0337 51.74 58.4177 51.94C58.8097 52.132 59.1137 52.428 59.3297 52.828C59.5537 53.228 59.6657 53.732 59.6657 54.34V58H58.8137V54.424C58.8137 53.76 58.6457 53.26 58.3097 52.924C57.9817 52.58 57.5177 52.408 56.9177 52.408C56.4697 52.408 56.0777 52.5 55.7417 52.684C55.4137 52.86 55.1577 53.12 54.9737 53.464C54.7977 53.8 54.7097 54.208 54.7097 54.688V58H53.8577V51.7H54.6737V53.428L54.5417 53.104C54.7417 52.648 55.0617 52.292 55.5017 52.036C55.9417 51.772 56.4657 51.64 57.0737 51.64ZM68.3957 58.06C67.7877 58.06 67.2397 57.924 66.7517 57.652C66.2717 57.372 65.8917 56.992 65.6117 56.512C65.3317 56.024 65.1917 55.468 65.1917 54.844C65.1917 54.212 65.3317 53.656 65.6117 53.176C65.8917 52.696 66.2717 52.32 66.7517 52.048C67.2317 51.776 67.7797 51.64 68.3957 51.64C69.0197 51.64 69.5717 51.776 70.0517 52.048C70.5397 52.32 70.9197 52.696 71.1917 53.176C71.4717 53.656 71.6117 54.212 71.6117 54.844C71.6117 55.468 71.4717 56.024 71.1917 56.512C70.9197 56.992 70.5397 57.372 70.0517 57.652C69.5637 57.924 69.0117 58.06 68.3957 58.06ZM68.3957 57.304C68.8517 57.304 69.2557 57.204 69.6077 57.004C69.9597 56.796 70.2357 56.508 70.4357 56.14C70.6437 55.764 70.7477 55.332 70.7477 54.844C70.7477 54.348 70.6437 53.916 70.4357 53.548C70.2357 53.18 69.9597 52.896 69.6077 52.696C69.2557 52.488 68.8557 52.384 68.4077 52.384C67.9597 52.384 67.5597 52.488 67.2077 52.696C66.8557 52.896 66.5757 53.18 66.3677 53.548C66.1597 53.916 66.0557 54.348 66.0557 54.844C66.0557 55.332 66.1597 55.764 66.3677 56.14C66.5757 56.508 66.8557 56.796 67.2077 57.004C67.5597 57.204 67.9557 57.304 68.3957 57.304ZM73.8551 58V50.908C73.8551 50.348 74.0191 49.896 74.3471 49.552C74.6751 49.208 75.1471 49.036 75.7631 49.036C76.0031 49.036 76.2351 49.068 76.4591 49.132C76.6831 49.196 76.8711 49.296 77.0231 49.432L76.7351 50.068C76.6151 49.964 76.4751 49.888 76.3151 49.84C76.1551 49.784 75.9831 49.756 75.7991 49.756C75.4391 49.756 75.1631 49.856 74.9711 50.056C74.7791 50.256 74.6831 50.552 74.6831 50.944V51.904L74.7071 52.3V58H73.8551ZM72.7271 52.408V51.7H76.6271V52.408H72.7271ZM81.4462 58V49.6H85.5502C86.6062 49.6 87.3982 49.8 87.9262 50.2C88.4622 50.6 88.7302 51.128 88.7302 51.784C88.7302 52.224 88.6222 52.608 88.4062 52.936C88.1902 53.256 87.8942 53.504 87.5182 53.68C87.1422 53.856 86.7102 53.944 86.2222 53.944L86.4502 53.452C86.9782 53.452 87.4462 53.54 87.8542 53.716C88.2622 53.884 88.5782 54.136 88.8022 54.472C89.0342 54.808 89.1502 55.22 89.1502 55.708C89.1502 56.428 88.8662 56.992 88.2982 57.4C87.7302 57.8 86.8942 58 85.7902 58H81.4462ZM83.3782 56.536H85.6462C86.1502 56.536 86.5302 56.456 86.7862 56.296C87.0502 56.128 87.1822 55.864 87.1822 55.504C87.1822 55.152 87.0502 54.892 86.7862 54.724C86.5302 54.548 86.1502 54.46 85.6462 54.46H83.2342V53.044H85.3102C85.7822 53.044 86.1422 52.964 86.3902 52.804C86.6462 52.636 86.7742 52.384 86.7742 52.048C86.7742 51.72 86.6462 51.476 86.3902 51.316C86.1422 51.148 85.7822 51.064 85.3102 51.064H83.3782V56.536ZM90.8499 58V51.544H92.6379V53.368L92.3859 52.84C92.5779 52.384 92.8859 52.04 93.3099 51.808C93.7339 51.568 94.2499 51.448 94.8579 51.448V53.176C94.7779 53.168 94.7059 53.164 94.6419 53.164C94.5779 53.156 94.5099 53.152 94.4379 53.152C93.9259 53.152 93.5099 53.3 93.1899 53.596C92.8779 53.884 92.7219 54.336 92.7219 54.952V58H90.8499ZM99.8692 58V56.74L99.7492 56.464V54.208C99.7492 53.808 99.6252 53.496 99.3772 53.272C99.1372 53.048 98.7652 52.936 98.2612 52.936C97.9172 52.936 97.5772 52.992 97.2412 53.104C96.9132 53.208 96.6332 53.352 96.4012 53.536L95.7292 52.228C96.0812 51.98 96.5052 51.788 97.0012 51.652C97.4972 51.516 98.0012 51.448 98.5132 51.448C99.4972 51.448 100.261 51.68 100.805 52.144C101.349 52.608 101.621 53.332 101.621 54.316V58H99.8692ZM97.9012 58.096C97.3972 58.096 96.9652 58.012 96.6052 57.844C96.2452 57.668 95.9692 57.432 95.7772 57.136C95.5852 56.84 95.4892 56.508 95.4892 56.14C95.4892 55.756 95.5812 55.42 95.7652 55.132C95.9572 54.844 96.2572 54.62 96.6652 54.46C97.0732 54.292 97.6052 54.208 98.2612 54.208H99.9772V55.3H98.4652C98.0252 55.3 97.7212 55.372 97.5532 55.516C97.3932 55.66 97.3132 55.84 97.3132 56.056C97.3132 56.296 97.4052 56.488 97.5892 56.632C97.7812 56.768 98.0412 56.836 98.3692 56.836C98.6812 56.836 98.9612 56.764 99.2092 56.62C99.4572 56.468 99.6372 56.248 99.7492 55.96L100.037 56.824C99.9012 57.24 99.6532 57.556 99.2932 57.772C98.9332 57.988 98.4692 58.096 97.9012 58.096ZM107.599 51.448C108.111 51.448 108.567 51.552 108.967 51.76C109.375 51.96 109.695 52.272 109.927 52.696C110.159 53.112 110.275 53.648 110.275 54.304V58H108.403V54.592C108.403 54.072 108.287 53.688 108.055 53.44C107.831 53.192 107.511 53.068 107.095 53.068C106.799 53.068 106.531 53.132 106.291 53.26C106.059 53.38 105.875 53.568 105.739 53.824C105.611 54.08 105.547 54.408 105.547 54.808V58H103.675V51.544H105.463V53.332L105.127 52.792C105.359 52.36 105.691 52.028 106.123 51.796C106.555 51.564 107.047 51.448 107.599 51.448ZM115.151 58.096C114.543 58.096 113.995 57.96 113.507 57.688C113.019 57.408 112.631 57.02 112.343 56.524C112.063 56.028 111.923 55.444 111.923 54.772C111.923 54.092 112.063 53.504 112.343 53.008C112.631 52.512 113.019 52.128 113.507 51.856C113.995 51.584 114.543 51.448 115.151 51.448C115.695 51.448 116.171 51.568 116.579 51.808C116.987 52.048 117.303 52.412 117.527 52.9C117.751 53.388 117.863 54.012 117.863 54.772C117.863 55.524 117.755 56.148 117.539 56.644C117.323 57.132 117.011 57.496 116.603 57.736C116.203 57.976 115.719 58.096 115.151 58.096ZM115.475 56.56C115.779 56.56 116.055 56.488 116.303 56.344C116.551 56.2 116.747 55.996 116.891 55.732C117.043 55.46 117.119 55.14 117.119 54.772C117.119 54.396 117.043 54.076 116.891 53.812C116.747 53.548 116.551 53.344 116.303 53.2C116.055 53.056 115.779 52.984 115.475 52.984C115.163 52.984 114.883 53.056 114.635 53.2C114.387 53.344 114.187 53.548 114.035 53.812C113.891 54.076 113.819 54.396 113.819 54.772C113.819 55.14 113.891 55.46 114.035 55.732C114.187 55.996 114.387 56.2 114.635 56.344C114.883 56.488 115.163 56.56 115.475 56.56ZM117.167 58V56.68L117.203 54.76L117.083 52.852V49.096H118.955V58H117.167ZM122.8 58L120.088 51.544H122.02L124.276 57.1H123.316L125.656 51.544H127.456L124.732 58H122.8ZM128.58 58V49.096H130.452V58H128.58ZM135.753 58.096C135.017 58.096 134.369 57.952 133.809 57.664C133.257 57.376 132.829 56.984 132.525 56.488C132.221 55.984 132.069 55.412 132.069 54.772C132.069 54.124 132.217 53.552 132.513 53.056C132.817 52.552 133.229 52.16 133.749 51.88C134.269 51.592 134.857 51.448 135.513 51.448C136.145 51.448 136.713 51.584 137.217 51.856C137.729 52.12 138.133 52.504 138.429 53.008C138.725 53.504 138.873 54.1 138.873 54.796C138.873 54.868 138.869 54.952 138.861 55.048C138.853 55.136 138.845 55.22 138.837 55.3H133.593V54.208H137.853L137.133 54.532C137.133 54.196 137.065 53.904 136.929 53.656C136.793 53.408 136.605 53.216 136.365 53.08C136.125 52.936 135.845 52.864 135.525 52.864C135.205 52.864 134.921 52.936 134.673 53.08C134.433 53.216 134.245 53.412 134.109 53.668C133.973 53.916 133.905 54.212 133.905 54.556V54.844C133.905 55.196 133.981 55.508 134.133 55.78C134.293 56.044 134.513 56.248 134.793 56.392C135.081 56.528 135.417 56.596 135.801 56.596C136.145 56.596 136.445 56.544 136.701 56.44C136.965 56.336 137.205 56.18 137.421 55.972L138.417 57.052C138.121 57.388 137.749 57.648 137.301 57.832C136.853 58.008 136.337 58.096 135.753 58.096ZM140.479 58V51.544H142.351V58H140.479ZM141.415 50.644C141.071 50.644 140.791 50.544 140.575 50.344C140.359 50.144 140.251 49.896 140.251 49.6C140.251 49.304 140.359 49.056 140.575 48.856C140.791 48.656 141.071 48.556 141.415 48.556C141.759 48.556 142.039 48.652 142.255 48.844C142.471 49.028 142.579 49.268 142.579 49.564C142.579 49.876 142.471 50.136 142.255 50.344C142.047 50.544 141.767 50.644 141.415 50.644ZM150.139 53.38H154.171V54.94H150.139V53.38ZM150.283 58H148.339V49.6H154.687V51.16H150.283V58ZM159.151 58.096C158.463 58.096 157.851 57.952 157.315 57.664C156.787 57.376 156.367 56.984 156.055 56.488C155.751 55.984 155.599 55.412 155.599 54.772C155.599 54.124 155.751 53.552 156.055 53.056C156.367 52.552 156.787 52.16 157.315 51.88C157.851 51.592 158.463 51.448 159.151 51.448C159.831 51.448 160.439 51.592 160.975 51.88C161.511 52.16 161.931 52.548 162.235 53.044C162.539 53.54 162.691 54.116 162.691 54.772C162.691 55.412 162.539 55.984 162.235 56.488C161.931 56.984 161.511 57.376 160.975 57.664C160.439 57.952 159.831 58.096 159.151 58.096ZM159.151 56.56C159.463 56.56 159.743 56.488 159.991 56.344C160.239 56.2 160.435 55.996 160.579 55.732C160.723 55.46 160.795 55.14 160.795 54.772C160.795 54.396 160.723 54.076 160.579 53.812C160.435 53.548 160.239 53.344 159.991 53.2C159.743 53.056 159.463 52.984 159.151 52.984C158.839 52.984 158.559 53.056 158.311 53.2C158.063 53.344 157.863 53.548 157.711 53.812C157.567 54.076 157.495 54.396 157.495 54.772C157.495 55.14 157.567 55.46 157.711 55.732C157.863 55.996 158.063 56.2 158.311 56.344C158.559 56.488 158.839 56.56 159.151 56.56ZM167.374 58.096C166.686 58.096 166.074 57.952 165.538 57.664C165.01 57.376 164.59 56.984 164.278 56.488C163.974 55.984 163.822 55.412 163.822 54.772C163.822 54.124 163.974 53.552 164.278 53.056C164.59 52.552 165.01 52.16 165.538 51.88C166.074 51.592 166.686 51.448 167.374 51.448C168.054 51.448 168.662 51.592 169.198 51.88C169.734 52.16 170.154 52.548 170.458 53.044C170.762 53.54 170.914 54.116 170.914 54.772C170.914 55.412 170.762 55.984 170.458 56.488C170.154 56.984 169.734 57.376 169.198 57.664C168.662 57.952 168.054 58.096 167.374 58.096ZM167.374 56.56C167.686 56.56 167.966 56.488 168.214 56.344C168.462 56.2 168.658 55.996 168.802 55.732C168.946 55.46 169.018 55.14 169.018 54.772C169.018 54.396 168.946 54.076 168.802 53.812C168.658 53.548 168.462 53.344 168.214 53.2C167.966 53.056 167.686 52.984 167.374 52.984C167.062 52.984 166.782 53.056 166.534 53.2C166.286 53.344 166.086 53.548 165.934 53.812C165.79 54.076 165.718 54.396 165.718 54.772C165.718 55.14 165.79 55.46 165.934 55.732C166.086 55.996 166.286 56.2 166.534 56.344C166.782 56.488 167.062 56.56 167.374 56.56ZM175.297 58.096C174.689 58.096 174.141 57.96 173.653 57.688C173.165 57.408 172.777 57.02 172.489 56.524C172.209 56.028 172.069 55.444 172.069 54.772C172.069 54.092 172.209 53.504 172.489 53.008C172.777 52.512 173.165 52.128 173.653 51.856C174.141 51.584 174.689 51.448 175.297 51.448C175.841 51.448 176.317 51.568 176.725 51.808C177.133 52.048 177.449 52.412 177.673 52.9C177.897 53.388 178.009 54.012 178.009 54.772C178.009 55.524 177.901 56.148 177.685 56.644C177.469 57.132 177.157 57.496 176.749 57.736C176.349 57.976 175.865 58.096 175.297 58.096ZM175.621 56.56C175.925 56.56 176.201 56.488 176.449 56.344C176.697 56.2 176.893 55.996 177.037 55.732C177.189 55.46 177.265 55.14 177.265 54.772C177.265 54.396 177.189 54.076 177.037 53.812C176.893 53.548 176.697 53.344 176.449 53.2C176.201 53.056 175.925 52.984 175.621 52.984C175.309 52.984 175.029 53.056 174.781 53.2C174.533 53.344 174.333 53.548 174.181 53.812C174.037 54.076 173.965 54.396 173.965 54.772C173.965 55.14 174.037 55.46 174.181 55.732C174.333 55.996 174.533 56.2 174.781 56.344C175.029 56.488 175.309 56.56 175.621 56.56ZM177.313 58V56.68L177.349 54.76L177.229 52.852V49.096H179.101V58H177.313ZM183.366 58.096C182.814 58.096 182.282 58.032 181.77 57.904C181.266 57.768 180.866 57.6 180.57 57.4L181.194 56.056C181.49 56.24 181.838 56.392 182.238 56.512C182.646 56.624 183.046 56.68 183.438 56.68C183.87 56.68 184.174 56.628 184.35 56.524C184.534 56.42 184.626 56.276 184.626 56.092C184.626 55.94 184.554 55.828 184.41 55.756C184.274 55.676 184.09 55.616 183.858 55.576C183.626 55.536 183.37 55.496 183.09 55.456C182.818 55.416 182.542 55.364 182.262 55.3C181.982 55.228 181.726 55.124 181.494 54.988C181.262 54.852 181.074 54.668 180.93 54.436C180.794 54.204 180.726 53.904 180.726 53.536C180.726 53.128 180.842 52.768 181.074 52.456C181.314 52.144 181.658 51.9 182.106 51.724C182.554 51.54 183.09 51.448 183.714 51.448C184.154 51.448 184.602 51.496 185.058 51.592C185.514 51.688 185.894 51.828 186.198 52.012L185.574 53.344C185.262 53.16 184.946 53.036 184.626 52.972C184.314 52.9 184.01 52.864 183.714 52.864C183.298 52.864 182.994 52.92 182.802 53.032C182.61 53.144 182.514 53.288 182.514 53.464C182.514 53.624 182.582 53.744 182.718 53.824C182.862 53.904 183.05 53.968 183.282 54.016C183.514 54.064 183.766 54.108 184.038 54.148C184.318 54.18 184.598 54.232 184.878 54.304C185.158 54.376 185.41 54.48 185.634 54.616C185.866 54.744 186.054 54.924 186.198 55.156C186.342 55.38 186.414 55.676 186.414 56.044C186.414 56.444 186.294 56.8 186.054 57.112C185.814 57.416 185.466 57.656 185.01 57.832C184.562 58.008 184.014 58.096 183.366 58.096Z" fill="#323444"/>
<path fill-rule="evenodd" clip-rule="evenodd" d="M216.333 56H229V58.6667H216.333V56Z" fill="#323444"/>
<path fill-rule="evenodd" clip-rule="evenodd" d="M224.333 50.6667C224.687 50.6667 225.026 50.8072 225.276 51.0572C225.526 51.3073 225.667 51.6464 225.667 52V57.3334C225.667 57.687 225.526 58.0261 225.276 58.2762C225.026 58.5262 224.687 58.6667 224.333 58.6667C223.98 58.6667 223.641 58.5262 223.391 58.2762C223.14 58.0261 223 57.687 223 57.3334V52C223 51.6464 223.14 51.3073 223.391 51.0572C223.641 50.8072 223.98 50.6667 224.333 50.6667Z" fill="#323444"/>
<path fill-rule="evenodd" clip-rule="evenodd" d="M223.267 53.3333C228.675 53.3333 233.6 51.3013 237.311 47.9667C235.086 48.8731 232.706 49.3373 230.304 49.3333C220.428 49.3333 212.333 41.6213 212.333 32C212.333 31.6464 212.474 31.3072 212.724 31.0572C212.974 30.8071 213.313 30.6667 213.667 30.6667C214.02 30.6667 214.36 30.8071 214.61 31.0572C214.86 31.3072 215 31.6464 215 32C215 40.052 221.803 46.6667 230.304 46.6667C235.004 46.6667 239.197 44.6387 242 41.46C242.085 41.3627 242.184 41.2787 242.293 41.2107C242.96 39.7573 243.463 38.2133 243.777 36.604C244.269 34.0813 244.996 31.5587 246.548 29.5107C247.192 28.6613 246.468 27.4627 245.417 27.636L227.931 30.52C226.568 30.7449 225.168 30.5407 223.926 29.9357C222.684 29.3306 221.661 28.3546 220.997 27.1427L214.912 16.0227C214.306 14.9172 213.317 14.0712 212.131 13.6435C210.945 13.2158 209.643 13.236 208.471 13.7002C207.299 14.1644 206.337 15.0407 205.765 16.1644C205.193 17.2881 205.052 18.5819 205.367 19.8027L205.831 21.5933C206.307 23.4329 206.299 25.3644 205.808 27.2L204.793 30.9893C203.617 35.38 203.28 40.2053 205.793 43.9933C207.708 46.8726 210.306 49.2327 213.355 50.8626C216.405 52.4924 219.81 53.3413 223.268 53.3333H223.267ZM209.667 18.6667C210.02 18.6667 210.36 18.5262 210.61 18.2761C210.86 18.0261 211 17.687 211 17.3333C211 16.9797 210.86 16.6406 210.61 16.3905C210.36 16.1405 210.02 16 209.667 16C209.313 16 208.974 16.1405 208.724 16.3905C208.474 16.6406 208.333 16.9797 208.333 17.3333C208.333 17.687 208.474 18.0261 208.724 18.2761C208.974 18.5262 209.313 18.6667 209.667 18.6667V18.6667Z" fill="#323444"/>
<path fill-rule="evenodd" clip-rule="evenodd" d="M211.115 8C212.795 6.32 215.667 7.50933 215.667 9.88533V12H217.493C219.945 12 221.097 15.0307 219.264 16.66L215.885 19.6627C215.62 19.8897 215.276 20.0036 214.927 19.9797C214.579 19.9558 214.254 19.7961 214.022 19.535C213.79 19.2738 213.67 18.932 213.687 18.5832C213.704 18.2343 213.858 17.9061 214.115 17.6693L217.493 14.6667H215.667C214.959 14.6667 214.281 14.3857 213.781 13.8856C213.281 13.3855 213 12.7072 213 12V9.88533L201.552 21.3333H206.333C206.687 21.3333 207.026 21.4738 207.276 21.7239C207.526 21.9739 207.667 22.313 207.667 22.6667C207.667 23.0203 207.526 23.3594 207.276 23.6095C207.026 23.8595 206.687 24 206.333 24H201.552C199.176 24 197.987 21.128 199.667 19.448L211.115 8Z" fill="#323444"/>
</svg>
