<svg width="64" height="64" viewBox="0 0 64 64" fill="none" xmlns="http://www.w3.org/2000/svg">
<path d="M53.3335 48H48.0002V24.6667L32.0002 34.6667L16.0002 24.6667V48H10.6668V16H13.8668L32.0002 27.3333L50.1335 16H53.3335M53.3335 10.6667H10.6668C7.70683 10.6667 5.3335 13.04 5.3335 16V48C5.3335 49.4145 5.8954 50.771 6.89559 51.7712C7.89579 52.7714 9.25234 53.3333 10.6668 53.3333H53.3335C54.748 53.3333 56.1045 52.7714 57.1047 51.7712C58.1049 50.771 58.6668 49.4145 58.6668 48V16C58.6668 14.5855 58.1049 13.229 57.1047 12.2288C56.1045 11.2286 54.748 10.6667 53.3335 10.6667Z" fill="#363636"/>
</svg>
