<svg width="64" height="64" viewBox="0 0 64 64" fill="none" xmlns="http://www.w3.org/2000/svg">
<path d="M53.2 56C47.4667 56 41.8782 54.7218 36.4347 52.1653C30.9893 49.6107 26.1671 46.2329 21.968 42.032C17.7671 37.8329 14.3893 33.0107 11.8347 27.5653C9.27822 22.1218 8 16.5333 8 10.8C8 10 8.26667 9.33333 8.8 8.8C9.33333 8.26667 10 8 10.8 8H21.6C22.2222 8 22.7778 8.2 23.2667 8.6C23.7556 9 24.0444 9.51111 24.1333 10.1333L25.8667 19.4667C25.9556 20.0889 25.9449 20.6551 25.8347 21.1653C25.7227 21.6773 25.4667 22.1333 25.0667 22.5333L18.6667 29.0667C20.5333 32.2667 22.8667 35.2667 25.6667 38.0667C28.4667 40.8667 31.5556 43.2889 34.9333 45.3333L41.2 39.0667C41.6 38.6667 42.1227 38.3662 42.768 38.1653C43.4116 37.9662 44.0444 37.9111 44.6667 38L53.8667 39.8667C54.4889 40 55 40.2996 55.4 40.7653C55.8 41.2329 56 41.7778 56 42.4V53.2C56 54 55.7333 54.6667 55.2 55.2C54.6667 55.7333 54 56 53.2 56Z" fill="#323444"/>
</svg>
